<svg id="Calque_1" data-name="Calque 1" xmlns="http://www.w3.org/2000/svg" viewBox="0 0 120 120"><title>face-hair-b2</title><path d="M359,481.9H239v-120H359Z" transform="translate(-239 -361.9)" style="fill:transparent"/><path d="M253.1,422.9c-3.1-2.1-4.3-4.6-3.1-7.6s3.3-4.6,6.2-4.3c10.7,1,19.5-4.8,29-7.9s19.7-7.4,29.5-11.1l13.1-5a7.7,7.7,0,0,1,8,1c2.5,1.9,2.7,4.4,1.5,7.1,7.2,2.9,7.7,3.8,6.4,11.1,3.6,2.4,6.3,5.5,4.5,10.3s-5.8,6.3-10.3,6.3Z" transform="translate(-239 -361.9)" style="fill:#eeab03"/></svg>