<svg id="Calque_1" data-name="Calque 1" xmlns="http://www.w3.org/2000/svg" viewBox="0 0 119.9 119.8"><title>face-hair-b1</title><path d="M359,481.9H239.1V362H359Z" transform="translate(-239.1 -362)" style="fill:transparent"/><path d="M252.8,452.1c-2.2-5.5,0-9.6,4.6-13-1.4-5.3-4.7-10-4.4-15.9-2.4-2.1-4.6-4.7-2.9-8.1s5.1-4.7,8.8-4.2,7.6-2.1,11-3.6c13.8-6,27.4-12.4,40.9-18.8,7.5-3.6,15.2-2.5,22.9-1.6,3.8.5,4.7,3.5,3.6,8.3,7.1,2.6,7.9,3.9,6.3,10.4,8.1,6.9,6.3,13.5-2.5,17.1.5,5.6-4.3,10-4,15.6,8,2.9,9.6,5.7,8.4,13.9,5.3,4.1,6.7,7.8,4.7,12.2s-5,5.5-9.3,5.5l-74.9-.2-8.5.2c-5.1.1-8.4-1.9-9.9-5.9s-.3-7.6,3.9-10.8Z" transform="translate(-239.1 -362)" style="fill:#eeab03"/></svg>